<?xml version="1.0" standalone="no"?>
<!DOCTYPE svg PUBLIC "-//W3C//DTD SVG 20010904//EN"
 "http://www.w3.org/TR/2001/REC-SVG-20010904/DTD/svg10.dtd">
<svg version="1.0" xmlns="http://www.w3.org/2000/svg"
 width="260.000000pt" height="260.000000pt" viewBox="0 0 260.000000 260.000000"
 preserveAspectRatio="xMidYMid meet">
<metadata>
Created by potrace 1.11, written by Peter Selinger 2001-2013
</metadata>
<g transform="translate(0.000000,260.000000) scale(0.100000,-0.100000)"
fill="#000000" stroke="none">
<path d="M1188 2070 c-134 -23 -256 -86 -341 -178 -70 -76 -90 -128 -91 -237
-1 -79 3 -98 28 -152 66 -145 221 -233 513 -293 250 -51 361 -120 370 -228 5
-61 -24 -112 -92 -164 -70 -53 -155 -78 -269 -78 -137 0 -259 44 -385 139 -64
48 -82 55 -126 47 -53 -10 -85 -50 -85 -105 0 -61 14 -79 114 -146 168 -111
306 -157 481 -158 133 -1 207 16 323 74 103 52 187 131 228 214 26 55 29 69
29 165 0 91 -3 112 -24 155 -40 81 -123 156 -232 208 -87 43 -137 58 -384 116
-163 39 -256 99 -271 176 -14 76 64 167 181 211 37 14 74 19 145 18 111 -1
153 -15 294 -99 112 -67 143 -70 192 -21 26 26 34 42 34 70 0 58 -19 83 -101
136 -174 112 -364 158 -531 130z"/>
</g>
</svg>
